<svg width="32" height="32" viewBox="0 0 32 32" fill="none" xmlns="http://www.w3.org/2000/svg">
<g id="1">
<path id="Vector" fill-rule="evenodd" clip-rule="evenodd" d="M1.59998 8.01603C1.59998 7.25603 1.99998 6.55203 2.66398 6.17603L12.864 0.288028C13.1875 0.101257 13.5544 0.00292969 13.928 0.00292969C14.3015 0.00292969 14.6685 0.101257 14.992 0.288028L25.192 6.17603C25.515 6.36255 25.7834 6.63073 25.9702 6.95367C26.1569 7.27662 26.2555 7.64298 26.256 8.01603V12.816L22.256 10.504C21.9325 10.3173 21.5655 10.2189 21.192 10.2189C20.8184 10.2189 20.4515 10.3173 20.128 10.504L12.52 14.888C12.1954 15.0735 11.9255 15.3413 11.7373 15.6643C11.5491 15.9873 11.4493 16.3542 11.448 16.728V25.488C11.448 26.208 11.808 26.864 12.4 27.256L2.66398 21.64C2.3409 21.4535 2.07254 21.1853 1.8858 20.8624C1.69905 20.5394 1.60048 20.1731 1.59998 19.8V8.01603Z" fill="#89C700"/>
<path id="Vector_2" fill-rule="evenodd" clip-rule="evenodd" d="M12.4 27.2552L12.864 27.5272C13.52 27.9112 14.336 27.9112 14.992 27.5272L25.192 21.6392C25.5151 21.4527 25.7835 21.1845 25.9702 20.8616C26.1569 20.5387 26.2555 20.1723 26.256 19.7992V12.8232L29.832 14.8872C30.1551 15.0738 30.4235 15.3419 30.6102 15.6649C30.7969 15.9878 30.8955 16.3542 30.896 16.7272V25.4872C30.896 26.2472 30.496 26.9512 29.832 27.3272L22.248 31.7112C21.592 32.0952 20.784 32.0952 20.128 31.7112L12.52 27.3352L12.4 27.2552Z" fill="#FFDD00"/>
<path id="Vector_3" fill-rule="evenodd" clip-rule="evenodd" d="M26.258 12.8238L22.258 10.5038C21.9345 10.3171 21.5675 10.2188 21.194 10.2188C20.8204 10.2188 20.4534 10.3171 20.13 10.5038L12.522 14.8878C12.1974 15.0734 11.9274 15.3411 11.7392 15.6641C11.551 15.9871 11.4513 16.354 11.45 16.7278V25.4878C11.45 26.2078 11.81 26.8638 12.402 27.2558L12.866 27.5278C13.522 27.9118 14.338 27.9118 14.994 27.5278L25.194 21.6398C25.517 21.4533 25.7854 21.1851 25.9721 20.8622C26.1589 20.5393 26.2574 20.1729 26.258 19.7998V12.8238Z" fill="#FFDD00"/>
</g>
</svg>
